# xmcd
#
# Track frame offsets:
#	150
#	19307
#	39080
#	52000
#	65137
#	76735
#	90432
#	102247
#	114725
#	126640
#	137457
#	152980
#
# Disc length: 2210 seconds
#
# Revision: 0
# Processed by: cddbd v1.4PL0 Copyright (c) Steve Scherf et al.
# Submitted via: audiograbber 1.81.01
#
DISCID=9f08a00c
DTITLE=Piergiorgio Farina - I Grandi successi Originali cd2
DYEAR=1900
DGENRE=pop
TTITLE0=Sugar baby love
TTITLE1=This guy's in love with you
TTITLE2=Hey Paula
TTITLE3=Little darling
TTITLE4=Long iall sally
TTITLE5=My prayer
TTITLE6=Put your head on my shoulder
TTITLE7=The great pretender
TTITLE8=Passion flower
TTITLE9=Diana
TTITLE10=Spedy gonzales
TTITLE11=Forever
EXTD=
EXTT0=
EXTT1=
EXTT2=
EXTT3=
EXTT4=
EXTT5=
EXTT6=
EXTT7=
EXTT8=
EXTT9=
EXTT10=
EXTT11=
PLAYORDER=
